<svg width="307" height="134" viewBox="0 0 307 134" fill="none" xmlns="http://www.w3.org/2000/svg">
<path d="M6.12181 94.8472C13.3546 90.2057 21.8776 82.207 18.6356 72.8132C16.8793 67.6887 14.4523 63.2963 14.1245 57.7638C13.8388 53.0474 14.5456 48.343 16.1906 43.9176C22.6776 26.561 41.9912 18.3222 59.4522 23.5607C75.62 28.4182 86.7564 47.1218 79.9898 63.4523C76.1192 72.8762 74.3809 80.1428 83.0092 87.4695C85.346 89.4527 91.03 92.4379 90.9999 95.9693C90.9999 100.611 81.8965 94.9852 80.88 94.1901C82.0228 96.2063 93.475 108.126 86.188 108.939C79.4996 109.723 73.581 100.38 69.5541 96.3773C62.7844 89.6417 63.9603 104.535 63.9332 107.61C63.9332 112.456 60.4536 122.315 54.2704 115.894C49.1789 110.611 51.1517 102.156 47.5489 96.2813C43.6783 89.8277 37.2124 102.723 35.5944 105.081C33.7779 107.721 24.7076 120.454 21.1709 113.659C18.2717 108.141 22.9062 99.5186 25.2098 94.5321C24.3647 96.3443 18.4612 99.0175 16.7199 99.8936C12.9767 101.942 8.73779 102.915 4.47375 102.705C-4.61163 102.066 2.35654 97.2354 6.02257 94.8772L6.12181 94.8472Z" fill="white"/>
<path d="M99.7884 80L101.732 74.0298H111.179L113.122 80H119.054L110.028 53.8182H102.895L93.8565 80H99.7884ZM103.138 69.7088L106.359 59.8011H106.564L109.786 69.7088H103.138ZM140.525 87.3636V60.3636H135.156V63.6619H134.913C134.184 62.0639 132.612 60.108 129.326 60.108C125.018 60.108 121.374 63.4574 121.374 70.2074C121.374 76.7784 124.864 80.3196 129.339 80.3196C132.509 80.3196 134.158 78.4915 134.913 76.8551H135.079V87.3636H140.525ZM135.194 70.1818C135.194 73.6847 133.685 75.9858 131.065 75.9858C128.393 75.9858 126.935 73.608 126.935 70.1818C126.935 66.7812 128.367 64.4418 131.065 64.4418C133.711 64.4418 135.194 66.679 135.194 70.1818ZM157.477 71.6392C157.489 74.2727 155.687 75.6534 153.731 75.6534C151.673 75.6534 150.343 74.2088 150.33 71.8949V60.3636H144.884V72.8665C144.897 77.456 147.582 80.2557 151.532 80.2557C154.485 80.2557 156.607 78.7344 157.489 76.4332H157.694V80H162.923V60.3636H157.477V71.6392ZM172.878 80.3707C175.78 80.3707 177.659 79.1051 178.618 77.277H178.772V80H183.936V66.7557C183.936 62.0767 179.973 60.108 175.601 60.108C170.897 60.108 167.803 62.358 167.049 65.9375L172.086 66.3466C172.456 65.0426 173.62 64.0838 175.576 64.0838C177.429 64.0838 178.49 65.017 178.49 66.6278V66.7045C178.49 67.9702 177.148 68.1364 173.735 68.4688C169.848 68.8267 166.358 70.1307 166.358 74.5156C166.358 78.402 169.132 80.3707 172.878 80.3707ZM174.438 76.6122C172.763 76.6122 171.561 75.8324 171.561 74.3366C171.561 72.8026 172.827 72.0483 174.745 71.7798C175.934 71.6136 177.877 71.3324 178.529 70.8977V72.9815C178.529 75.0398 176.828 76.6122 174.438 76.6122ZM188.264 80H193.799V71.5114H198.453C204.474 71.5114 207.977 67.919 207.977 62.6903C207.977 57.4872 204.538 53.8182 198.593 53.8182H188.264V80ZM193.799 67.0753V58.3438H197.532C200.728 58.3438 202.275 60.0824 202.275 62.6903C202.275 65.2855 200.728 67.0753 197.558 67.0753H193.799ZM220.026 80.3835C225.983 80.3835 229.691 76.3054 229.691 70.2585C229.691 64.1733 225.983 60.108 220.026 60.108C214.069 60.108 210.361 64.1733 210.361 70.2585C210.361 76.3054 214.069 80.3835 220.026 80.3835ZM220.051 76.1648C217.303 76.1648 215.897 73.6463 215.897 70.2202C215.897 66.794 217.303 64.2628 220.051 64.2628C222.749 64.2628 224.155 66.794 224.155 70.2202C224.155 73.6463 222.749 76.1648 220.051 76.1648ZM238.678 53.8182H233.232V80H238.678V53.8182ZM259.379 65.9631C258.893 62.3452 255.978 60.108 251.018 60.108C245.994 60.108 242.683 62.4347 242.695 66.2188C242.683 69.1591 244.536 71.0639 248.371 71.831L251.772 72.5085C253.485 72.8537 254.265 73.4801 254.29 74.4645C254.265 75.6278 252.999 76.4588 251.094 76.4588C249.151 76.4588 247.86 75.6278 247.528 74.0298L242.171 74.3111C242.683 78.0696 245.879 80.3835 251.082 80.3835C256.17 80.3835 259.813 77.7884 259.826 73.9148C259.813 71.0767 257.96 69.3764 254.15 68.5966L250.596 67.8807C248.768 67.4844 248.09 66.858 248.103 65.9119C248.09 64.7358 249.42 63.9688 251.107 63.9688C252.999 63.9688 254.124 65.0043 254.393 66.2699L259.379 65.9631ZM268.701 53.8182H263.255V80H268.701V53.8182Z" fill="white"/>
</svg>
