<svg width="128" height="56" viewBox="0 0 128 56" fill="none" xmlns="http://www.w3.org/2000/svg">
<path d="M2.58915 39.3512C5.5954 37.4175 9.1379 34.085 7.7904 30.1712C7.0604 28.0362 6.05165 26.2062 5.9154 23.9012C5.79665 21.9362 6.0904 19.9762 6.77415 18.1325C9.4704 10.9012 17.4979 7.46872 24.7554 9.65122C31.4754 11.675 36.1041 19.4675 33.2916 26.2712C31.6829 30.1975 30.9604 33.225 34.5466 36.2775C35.5179 37.1037 37.8804 38.3475 37.8679 39.8187C37.8679 41.7525 34.0841 39.4087 33.6616 39.0775C34.1366 39.9175 38.8966 44.8837 35.8679 45.2225C33.0879 45.5487 30.6279 41.6562 28.9541 39.9887C26.1404 37.1825 26.6291 43.3875 26.6179 44.6687C26.6179 46.6875 25.1716 50.795 22.6016 48.12C20.4854 45.9187 21.3054 42.3962 19.8079 39.9487C18.1991 37.26 15.5116 42.6325 14.8391 43.615C14.0841 44.715 10.3141 50.02 8.84415 47.1887C7.63915 44.89 9.5654 41.2975 10.5229 39.22C10.1716 39.975 7.7179 41.0887 6.99415 41.4537C5.43834 42.3071 3.67646 42.7125 1.90415 42.625C-1.8721 42.3587 1.02415 40.3462 2.5479 39.3637L2.58915 39.3512Z" fill="black"/>
<path d="M42.3497 34L43.3213 31.0149H48.0451L49.0166 34H51.9826L47.4698 20.9091H43.903L39.3838 34H42.3497ZM44.0245 28.8544L45.6353 23.9006H45.7375L47.3483 28.8544H44.0245ZM62.718 37.6818V24.1818H60.0333V25.831H59.9119C59.5475 25.032 58.7613 24.054 57.1186 24.054C54.9644 24.054 53.1427 25.7287 53.1427 29.1037C53.1427 32.3892 54.8877 34.1598 57.125 34.1598C58.7102 34.1598 59.5348 33.2457 59.9119 32.4276H59.995V37.6818H62.718ZM60.0525 29.0909C60.0525 30.8423 59.2983 31.9929 57.9879 31.9929C56.6519 31.9929 55.9233 30.804 55.9233 29.0909C55.9233 27.3906 56.6392 26.2209 57.9879 26.2209C59.311 26.2209 60.0525 27.3395 60.0525 29.0909ZM71.1938 29.8196C71.2002 31.1364 70.299 31.8267 69.321 31.8267C68.2919 31.8267 67.6271 31.1044 67.6207 29.9474V24.1818H64.8977V30.4332C64.9041 32.728 66.2464 34.1278 68.2215 34.1278C69.6981 34.1278 70.7592 33.3672 71.2002 32.2166H71.3025V34H73.9169V24.1818H71.1938V29.8196ZM78.8947 34.1854C80.3457 34.1854 81.2853 33.5526 81.7647 32.6385H81.8414V34H84.4238V27.3778C84.4238 25.0384 82.4423 24.054 80.2562 24.054C77.9039 24.054 76.357 25.179 75.9799 26.9688L78.4984 27.1733C78.6837 26.5213 79.2654 26.0419 80.2434 26.0419C81.1702 26.0419 81.7008 26.5085 81.7008 27.3139V27.3523C81.7008 27.9851 81.0296 28.0682 79.3229 28.2344C77.3797 28.4134 75.6347 29.0653 75.6347 31.2578C75.6347 33.201 77.0218 34.1854 78.8947 34.1854ZM79.6745 32.3061C78.8371 32.3061 78.2363 31.9162 78.2363 31.1683C78.2363 30.4013 78.8691 30.0241 79.8279 29.8899C80.4224 29.8068 81.394 29.6662 81.7199 29.4489V30.4908C81.7199 31.5199 80.8698 32.3061 79.6745 32.3061ZM86.5875 34H89.3552V29.7557H91.682C94.6926 29.7557 96.444 27.9595 96.444 25.3452C96.444 22.7436 94.7246 20.9091 91.7523 20.9091H86.5875V34ZM89.3552 27.5376V23.1719H91.2217C92.8197 23.1719 93.5932 24.0412 93.5932 25.3452C93.5932 26.6428 92.8197 27.5376 91.2345 27.5376H89.3552ZM102.469 34.1918C105.447 34.1918 107.301 32.1527 107.301 29.1293C107.301 26.0866 105.447 24.054 102.469 24.054C99.4898 24.054 97.6361 26.0866 97.6361 29.1293C97.6361 32.1527 99.4898 34.1918 102.469 34.1918ZM102.481 32.0824C101.107 32.0824 100.404 30.8232 100.404 29.1101C100.404 27.397 101.107 26.1314 102.481 26.1314C103.83 26.1314 104.533 27.397 104.533 29.1101C104.533 30.8232 103.83 32.0824 102.481 32.0824ZM111.795 20.9091H109.072V34H111.795V20.9091ZM122.145 26.9815C121.902 25.1726 120.445 24.054 117.964 24.054C115.452 24.054 113.797 25.2173 113.803 27.1094C113.797 28.5795 114.724 29.532 116.641 29.9155L118.342 30.2543C119.198 30.4268 119.588 30.7401 119.601 31.2322C119.588 31.8139 118.955 32.2294 118.003 32.2294C117.031 32.2294 116.386 31.8139 116.219 31.0149L113.541 31.1555C113.797 33.0348 115.395 34.1918 117.996 34.1918C120.54 34.1918 122.362 32.8942 122.369 30.9574C122.362 29.5384 121.435 28.6882 119.53 28.2983L117.754 27.9403C116.839 27.7422 116.501 27.429 116.507 26.956C116.501 26.3679 117.165 25.9844 118.009 25.9844C118.955 25.9844 119.518 26.5021 119.652 27.1349L122.145 26.9815ZM126.806 20.9091H124.083V34H126.806V20.9091Z" fill="black"/>
</svg>
