<svg width="288" height="288" viewBox="0 0 288 288" fill="none" xmlns="http://www.w3.org/2000/svg">
<path d="M264 192V216H240C223.2 216 206.4 211.2 192 204C162 219.6 126 219.6 96 204C81.6 211.2 64.8 216 48 216H24V192H48C64.8 192 81.6 186 96 176.4C124.8 196.8 163.2 196.8 192 176.4C206.4 186 223.2 192 240 192H264ZM63.36 165.48C69.84 163.56 76.44 160.56 82.68 156.48L96 147.36C104.28 120 105.36 87.24 91.08 49.68C143.4 58.68 190.68 103.8 208.44 158.28C217.44 163.68 226.92 166.92 235.92 167.64C218.88 88.8 148.44 24 72 24C67.8 24 63.96 26.16 61.8 29.64C59.64 33.24 59.4 37.68 61.32 41.4C87.36 93.48 79.32 135.48 63.36 165.48ZM192 224.4C163.2 244.8 124.8 244.8 96 224.4C81.6 234 64.8 240 48 240H24V264H48C64.8 264 81.6 259.2 96 252C126 267.6 162 267.6 192 252C206.4 259.2 223.2 264 240 264H264V240H240C223.2 240 206.4 234 192 224.4Z" fill="#333333"/>
</svg>
